<svg xmlns="http://www.w3.org/2000/svg" width="136.188" height="38.345" viewBox="0 0 136.188 38.345"><path d="M50.829,306.953c.52-1.1,1.045-2.193,1.559-3.295q2.591-5.551,5.175-11.107c.564-1.213,1.143-2.418,1.691-3.636a.793.793,0,0,1,.828-.538c2.749.018,5.5.023,8.249,0,.517-.005.7.2.781.67q1.365,7.866,2.757,15.731c.16.913.328,1.826.507,2.811a1.467,1.467,0,0,0,.422-.747q3.468-8.759,6.925-17.523c.416-1.053.215-.926,1.391-.928q4.7-.008,9.395,0c.732,0,.742.015.45.69L75.769,324.25c-.29.665-.582,1.329-.853,2a.653.653,0,0,1-.7.46q-4.065-.015-8.133,0a.588.588,0,0,1-.68-.579c-.678-3.832-1.371-7.662-2.056-11.495q-.764-4.251-1.526-8.508c-.018-.111-.059-.217-.134-.481-.186.39-.323.665-.45.941q-3.786,8.285-7.564,16.566c-.468,1.024-.952,2.043-1.4,3.075a.7.7,0,0,1-.74.481c-2.614-.013-5.231-.021-7.846.005-.53,0-.639-.269-.7-.685q-.749-4.837-1.51-9.669-1.009-6.447-2.014-12.894-1.125-7.207-2.26-14.417c-.08-.507.023-.68.559-.678q5.155.027,10.31,0c.455,0,.634.15.68.61.279,2.713.587,5.423.882,8.133q.531,4.891,1.058,9.78Z" transform="translate(-37.175 -288.375)" fill="#137cc1"/><path d="M77.276,301.56c1.8,0,3.592-.021,5.387.013.528.01.7-.2.763-.675.535-3.91,1.086-7.823,1.627-11.733.106-.758.122-.781.89-.781q4.643,0,9.281,0c.745,0,.755.01.654.732q-1.2,8.588-2.4,17.173-1.381,9.891-2.751,19.785c-.067.486-.238.641-.719.639-3.17-.018-6.338-.023-9.509,0-.572.005-.672-.2-.6-.7q.725-5.015,1.42-10.031c.184-1.3.336-2.612.556-3.91.085-.51-.057-.636-.54-.631-1.72.018-3.437.008-5.156.008-1.89,0-3.781.015-5.671-.013-.52-.005-.7.194-.771.678-.641,4.668-1.3,9.335-1.947,14-.057.416-.209.595-.649.595q-4.841-.019-9.682,0c-.44,0-.561-.142-.5-.577.375-2.6.727-5.213,1.091-7.823q.95-6.8,1.9-13.6l1.9-13.545c.1-.719.2-1.435.284-2.157.047-.429.207-.634.68-.631q4.814.023,9.625,0c.453,0,.595.124.528.6-.569,3.985-1.1,7.975-1.681,11.958-.075.52.07.631.546.628C73.648,301.55,75.463,301.56,77.276,301.56Z" transform="translate(-5.824 -288.372)" fill="#137cc1"/><path d="M90.784,288.394c2.483,0,4.965-.047,7.448.013a17.1,17.1,0,0,1,6.258,1.218,8.727,8.727,0,0,1,5.749,8.05,14.5,14.5,0,0,1-3.39,10.646,13.015,13.015,0,0,1-7.331,4.06,39.338,39.338,0,0,1-8.606.561c-1.567,0-1.267-.191-1.479,1.321q-.834,5.892-1.619,11.792c-.067.494-.279.665-.781.659q-4.728-.027-9.452,0c-.54,0-.68-.147-.6-.7q1.346-9.4,2.645-18.813,1.272-9.1,2.526-18.2c.067-.494.256-.631.727-.628,2.635.018,5.27.01,7.905.01Zm2.638,14.916V303.3c.592,0,1.182.016,1.774-.005a4.861,4.861,0,0,0,2.692-.835,2.757,2.757,0,0,0,1.107-2.935c-.173-.957-1.071-1.14-1.87-1.355-.075-.018-.15-.039-.225-.052a32.756,32.756,0,0,0-4.908-.171c-.305,0-.375.189-.411.44q-.318,2.207-.641,4.412c-.057.378.116.52.481.517C92.087,303.3,92.754,303.31,93.421,303.31Z" transform="translate(25.922 -288.373)" fill="#137cc1"/><path d="M86.473,291.035a14.956,14.956,0,0,1-.264,2.327q-1.354,9.806-2.733,19.61-.628,4.507-1.257,9.012c-.047.336-.184.507-.548.507q-4.926-.008-9.853,0c-.411,0-.468-.184-.419-.538.339-2.4.662-4.8,1-7.2.59-4.231,1.208-8.459,1.758-12.7a2.813,2.813,0,0,1,1.14-2.027c3.558-2.821,7.07-5.7,10.6-8.565C86.038,291.345,86.2,291.239,86.473,291.035Z" transform="translate(17.081 -284.156)" fill="#137cc1"/><path d="M72.782,300.42c.241-1.717.476-3.416.716-5.115.29-2.058.6-4.114.861-6.175.067-.53.228-.76.807-.755,3.15.026,6.3.018,9.449.005.489,0,.636.106.6.649a4.213,4.213,0,0,1-1.769,3.4c-3.457,2.64-6.788,5.441-10.171,8.177-.116.093-.222.256-.388.2C72.7,300.739,72.8,300.542,72.782,300.42Z" transform="translate(19.285 -288.375)" fill="#137cc1"/></svg>